<?xml version="1.0" encoding="UTF-8" standalone="no"?>
<!DOCTYPE svg PUBLIC "-//W3C//DTD SVG 1.1//EN"
 "http://www.w3.org/Graphics/SVG/1.1/DTD/svg11.dtd">
<!-- Generated by graphviz version 2.47.0 (20210316.0004)
 -->
<!-- Title: dependencies Pages: 1 -->
<svg width="504pt" height="211pt"
 viewBox="0.00 0.00 504.00 211.00" xmlns="http://www.w3.org/2000/svg" xmlns:xlink="http://www.w3.org/1999/xlink">
<g id="graph0" class="graph" transform="scale(1 1) rotate(0) translate(4 207)">
<title>dependencies</title>
<polygon fill="white" stroke="transparent" points="-4,4 -4,-207 500,-207 500,4 -4,4"/>
<text text-anchor="start" x="227.01" y="-42.4" font-family="Times-12" font-weight="bold" font-size="14.00">Legend</text>
<polygon fill="#ffffb3" stroke="transparent" points="14,-10 14,-30 34,-30 34,-10 14,-10"/>
<text text-anchor="start" x="37.63" y="-15.4" font-family="Times-12" font-size="14.00"> &#160;Declarations</text>
<polygon fill="#8dd3c7" stroke="transparent" points="127,-10 127,-30 147,-30 147,-10 127,-10"/>
<text text-anchor="start" x="150.73" y="-15.4" font-family="Times-12" font-size="14.00"> &#160;Module</text>
<polygon fill="#80b1d3" stroke="transparent" points="213,-10 213,-30 233,-30 233,-10 213,-10"/>
<text text-anchor="start" x="236.78" y="-15.4" font-family="Times-12" font-size="14.00"> &#160;Bootstrap</text>
<polygon fill="#fdb462" stroke="transparent" points="310,-10 310,-30 330,-30 330,-10 310,-10"/>
<text text-anchor="start" x="333.67" y="-15.4" font-family="Times-12" font-size="14.00"> &#160;Providers</text>
<polygon fill="#fb8072" stroke="transparent" points="406,-10 406,-30 426,-30 426,-10 406,-10"/>
<text text-anchor="start" x="429.73" y="-15.4" font-family="Times-12" font-size="14.00"> &#160;Exports</text>
<g id="clust1" class="cluster">
<title>cluster_ToolPicturesModule</title>
<polygon fill="none" stroke="black" stroke-dasharray="1,5" points="85,-70 85,-195 411,-195 411,-70 85,-70"/>
</g>
<g id="clust6" class="cluster">
<title>cluster_ToolPicturesModule_providers</title>
<polygon fill="none" stroke="black" points="209,-78 209,-130 403,-130 403,-78 209,-78"/>
</g>
<g id="clust3" class="cluster">
<title>cluster_ToolPicturesModule_imports</title>
<polygon fill="none" stroke="black" points="93,-78 93,-130 201,-130 201,-78 93,-78"/>
</g>
<!-- ToolsModule -->
<g id="node1" class="node">
<title>ToolsModule</title>
<polygon fill="#8dd3c7" stroke="black" points="192.94,-122 189.94,-126 168.94,-126 165.94,-122 101.06,-122 101.06,-86 192.94,-86 192.94,-122"/>
<text text-anchor="middle" x="147" y="-99.8" font-family="Times,serif" font-size="14.00">ToolsModule</text>
</g>
<!-- ToolPicturesModule -->
<g id="node2" class="node">
<title>ToolPicturesModule</title>
<polygon fill="#8dd3c7" stroke="black" points="297.59,-187 294.59,-191 273.59,-191 270.59,-187 166.41,-187 166.41,-151 297.59,-151 297.59,-187"/>
<text text-anchor="middle" x="232" y="-164.8" font-family="Times,serif" font-size="14.00">ToolPicturesModule</text>
</g>
<!-- ToolsModule&#45;&gt;ToolPicturesModule -->
<g id="edge1" class="edge">
<title>ToolsModule&#45;&gt;ToolPicturesModule</title>
<path fill="none" stroke="black" d="M179.59,-122.11C179.59,-122.11 179.59,-140.99 179.59,-140.99"/>
<polygon fill="black" stroke="black" points="176.09,-140.99 179.59,-150.99 183.09,-140.99 176.09,-140.99"/>
</g>
<!-- ToolPicturesService -->
<g id="node3" class="node">
<title>ToolPicturesService</title>
<ellipse fill="#fdb462" stroke="black" cx="306" cy="-104" rx="89.18" ry="18"/>
<text text-anchor="middle" x="306" y="-99.8" font-family="Times,serif" font-size="14.00">ToolPicturesService</text>
</g>
<!-- ToolPicturesService&#45;&gt;ToolPicturesModule -->
<g id="edge2" class="edge">
<title>ToolPicturesService&#45;&gt;ToolPicturesModule</title>
<path fill="none" stroke="black" d="M257.1,-119.08C257.1,-119.08 257.1,-140.76 257.1,-140.76"/>
<polygon fill="black" stroke="black" points="253.6,-140.76 257.1,-150.76 260.6,-140.76 253.6,-140.76"/>
</g>
</g>
</svg>
