<?xml version="1.0" encoding="UTF-8" standalone="no"?>
<!DOCTYPE svg PUBLIC "-//W3C//DTD SVG 1.1//EN"
 "http://www.w3.org/Graphics/SVG/1.1/DTD/svg11.dtd">
<!-- Generated by graphviz version 2.47.0 (20210316.0004)
 -->
<!-- Title: dependencies Pages: 1 -->
<svg width="504pt" height="211pt"
 viewBox="0.00 0.00 504.00 211.00" xmlns="http://www.w3.org/2000/svg" xmlns:xlink="http://www.w3.org/1999/xlink">
<g id="graph0" class="graph" transform="scale(1 1) rotate(0) translate(4 207)">
<title>dependencies</title>
<polygon fill="white" stroke="transparent" points="-4,4 -4,-207 500,-207 500,4 -4,4"/>
<text text-anchor="start" x="227.01" y="-42.4" font-family="Times-12" font-weight="bold" font-size="14.00">Legend</text>
<polygon fill="#ffffb3" stroke="transparent" points="14,-10 14,-30 34,-30 34,-10 14,-10"/>
<text text-anchor="start" x="37.63" y="-15.4" font-family="Times-12" font-size="14.00"> &#160;Declarations</text>
<polygon fill="#8dd3c7" stroke="transparent" points="127,-10 127,-30 147,-30 147,-10 127,-10"/>
<text text-anchor="start" x="150.73" y="-15.4" font-family="Times-12" font-size="14.00"> &#160;Module</text>
<polygon fill="#80b1d3" stroke="transparent" points="213,-10 213,-30 233,-30 233,-10 213,-10"/>
<text text-anchor="start" x="236.78" y="-15.4" font-family="Times-12" font-size="14.00"> &#160;Bootstrap</text>
<polygon fill="#fdb462" stroke="transparent" points="310,-10 310,-30 330,-30 330,-10 310,-10"/>
<text text-anchor="start" x="333.67" y="-15.4" font-family="Times-12" font-size="14.00"> &#160;Providers</text>
<polygon fill="#fb8072" stroke="transparent" points="406,-10 406,-30 426,-30 426,-10 406,-10"/>
<text text-anchor="start" x="429.73" y="-15.4" font-family="Times-12" font-size="14.00"> &#160;Exports</text>
<g id="clust1" class="cluster">
<title>cluster_ReservationsModule</title>
<polygon fill="none" stroke="black" stroke-dasharray="1,5" points="29.5,-70 29.5,-195 466.5,-195 466.5,-70 29.5,-70"/>
</g>
<g id="clust6" class="cluster">
<title>cluster_ReservationsModule_providers</title>
<polygon fill="none" stroke="black" points="262.5,-78 262.5,-130 458.5,-130 458.5,-78 262.5,-78"/>
</g>
<g id="clust3" class="cluster">
<title>cluster_ReservationsModule_imports</title>
<polygon fill="none" stroke="black" points="37.5,-78 37.5,-130 254.5,-130 254.5,-78 37.5,-78"/>
</g>
<!-- ToolsModule -->
<g id="node1" class="node">
<title>ToolsModule</title>
<polygon fill="#8dd3c7" stroke="black" points="246.44,-122 243.44,-126 222.44,-126 219.44,-122 154.56,-122 154.56,-86 246.44,-86 246.44,-122"/>
<text text-anchor="middle" x="200.5" y="-99.8" font-family="Times,serif" font-size="14.00">ToolsModule</text>
</g>
<!-- ReservationsModule -->
<g id="node3" class="node">
<title>ReservationsModule</title>
<polygon fill="#8dd3c7" stroke="black" points="266.36,-187 263.36,-191 242.36,-191 239.36,-187 134.64,-187 134.64,-151 266.36,-151 266.36,-187"/>
<text text-anchor="middle" x="200.5" y="-164.8" font-family="Times,serif" font-size="14.00">ReservationsModule</text>
</g>
<!-- ToolsModule&#45;&gt;ReservationsModule -->
<g id="edge1" class="edge">
<title>ToolsModule&#45;&gt;ReservationsModule</title>
<path fill="none" stroke="black" d="M200.5,-122.11C200.5,-122.11 200.5,-140.99 200.5,-140.99"/>
<polygon fill="black" stroke="black" points="197,-140.99 200.5,-150.99 204,-140.99 197,-140.99"/>
</g>
<!-- UsersModule -->
<g id="node2" class="node">
<title>UsersModule</title>
<polygon fill="#8dd3c7" stroke="black" points="137.42,-122 134.42,-126 113.42,-126 110.42,-122 45.58,-122 45.58,-86 137.42,-86 137.42,-122"/>
<text text-anchor="middle" x="91.5" y="-99.8" font-family="Times,serif" font-size="14.00">UsersModule</text>
</g>
<!-- UsersModule&#45;&gt;ReservationsModule -->
<g id="edge2" class="edge">
<title>UsersModule&#45;&gt;ReservationsModule</title>
<path fill="none" stroke="black" d="M137.48,-104C142.59,-104 146,-104 146,-104 146,-104 146,-140.89 146,-140.89"/>
<polygon fill="black" stroke="black" points="142.5,-140.89 146,-150.89 149.5,-140.89 142.5,-140.89"/>
</g>
<!-- ReservationsService -->
<g id="node4" class="node">
<title>ReservationsService</title>
<ellipse fill="#fdb462" stroke="black" cx="360.5" cy="-104" rx="89.74" ry="18"/>
<text text-anchor="middle" x="360.5" y="-99.8" font-family="Times,serif" font-size="14.00">ReservationsService</text>
</g>
<!-- ReservationsService&#45;&gt;ReservationsModule -->
<g id="edge3" class="edge">
<title>ReservationsService&#45;&gt;ReservationsModule</title>
<path fill="none" stroke="black" d="M270.37,-104C261.86,-104 256.32,-104 256.32,-104 256.32,-104 256.32,-140.89 256.32,-140.89"/>
<polygon fill="black" stroke="black" points="252.82,-140.89 256.32,-150.89 259.82,-140.89 252.82,-140.89"/>
</g>
</g>
</svg>
