<?xml version="1.0" encoding="UTF-8" standalone="no"?>
<!DOCTYPE svg PUBLIC "-//W3C//DTD SVG 1.1//EN"
 "http://www.w3.org/Graphics/SVG/1.1/DTD/svg11.dtd">
<!-- Generated by graphviz version 2.47.0 (20210316.0004)
 -->
<!-- Title: dependencies Pages: 1 -->
<svg width="504pt" height="284pt"
 viewBox="0.00 0.00 504.00 284.00" xmlns="http://www.w3.org/2000/svg" xmlns:xlink="http://www.w3.org/1999/xlink">
<g id="graph0" class="graph" transform="scale(1 1) rotate(0) translate(4 280)">
<title>dependencies</title>
<polygon fill="white" stroke="transparent" points="-4,4 -4,-280 500,-280 500,4 -4,4"/>
<text text-anchor="start" x="227.01" y="-42.4" font-family="Times-12" font-weight="bold" font-size="14.00">Legend</text>
<polygon fill="#ffffb3" stroke="transparent" points="14,-10 14,-30 34,-30 34,-10 14,-10"/>
<text text-anchor="start" x="37.63" y="-15.4" font-family="Times-12" font-size="14.00"> &#160;Declarations</text>
<polygon fill="#8dd3c7" stroke="transparent" points="127,-10 127,-30 147,-30 147,-10 127,-10"/>
<text text-anchor="start" x="150.73" y="-15.4" font-family="Times-12" font-size="14.00"> &#160;Module</text>
<polygon fill="#80b1d3" stroke="transparent" points="213,-10 213,-30 233,-30 233,-10 213,-10"/>
<text text-anchor="start" x="236.78" y="-15.4" font-family="Times-12" font-size="14.00"> &#160;Bootstrap</text>
<polygon fill="#fdb462" stroke="transparent" points="310,-10 310,-30 330,-30 330,-10 310,-10"/>
<text text-anchor="start" x="333.67" y="-15.4" font-family="Times-12" font-size="14.00"> &#160;Providers</text>
<polygon fill="#fb8072" stroke="transparent" points="406,-10 406,-30 426,-30 426,-10 406,-10"/>
<text text-anchor="start" x="429.73" y="-15.4" font-family="Times-12" font-size="14.00"> &#160;Exports</text>
<g id="clust1" class="cluster">
<title>cluster_DateRangesModule</title>
<polygon fill="none" stroke="black" stroke-dasharray="1,5" points="87,-70 87,-268 409,-268 409,-70 87,-70"/>
</g>
<g id="clust3" class="cluster">
<title>cluster_DateRangesModule_imports</title>
<polygon fill="none" stroke="black" points="293,-78 293,-130 401,-130 401,-78 293,-78"/>
</g>
<g id="clust4" class="cluster">
<title>cluster_DateRangesModule_exports</title>
<polygon fill="none" stroke="black" points="186,-208 186,-260 332,-260 332,-208 186,-208"/>
</g>
<g id="clust6" class="cluster">
<title>cluster_DateRangesModule_providers</title>
<polygon fill="none" stroke="black" points="95,-78 95,-130 285,-130 285,-78 95,-78"/>
</g>
<!-- ToolsModule -->
<g id="node1" class="node">
<title>ToolsModule</title>
<polygon fill="#8dd3c7" stroke="black" points="392.94,-122 389.94,-126 368.94,-126 365.94,-122 301.06,-122 301.06,-86 392.94,-86 392.94,-122"/>
<text text-anchor="middle" x="347" y="-99.8" font-family="Times,serif" font-size="14.00">ToolsModule</text>
</g>
<!-- DateRangesModule -->
<g id="node2" class="node">
<title>DateRangesModule</title>
<polygon fill="#8dd3c7" stroke="black" points="322.69,-187 319.69,-191 298.69,-191 295.69,-187 195.31,-187 195.31,-151 322.69,-151 322.69,-187"/>
<text text-anchor="middle" x="259" y="-164.8" font-family="Times,serif" font-size="14.00">DateRangesModule</text>
</g>
<!-- ToolsModule&#45;&gt;DateRangesModule -->
<g id="edge1" class="edge">
<title>ToolsModule&#45;&gt;DateRangesModule</title>
<path fill="none" stroke="black" d="M311.94,-122.11C311.94,-122.11 311.94,-140.99 311.94,-140.99"/>
<polygon fill="black" stroke="black" points="308.44,-140.99 311.94,-150.99 315.44,-140.99 308.44,-140.99"/>
</g>
<!-- DateRangesService  -->
<g id="node3" class="node">
<title>DateRangesService </title>
<polygon fill="#fb8072" stroke="black" points="323.61,-252 194.39,-252 194.39,-216 323.61,-216 323.61,-252"/>
<text text-anchor="middle" x="259" y="-229.8" font-family="Times,serif" font-size="14.00">DateRangesService </text>
</g>
<!-- DateRangesModule&#45;&gt;DateRangesService  -->
<g id="edge2" class="edge">
<title>DateRangesModule&#45;&gt;DateRangesService </title>
<path fill="none" stroke="black" stroke-dasharray="5,2" d="M259,-187.11C259,-187.11 259,-205.99 259,-205.99"/>
<polygon fill="black" stroke="black" points="255.5,-205.99 259,-215.99 262.5,-205.99 255.5,-205.99"/>
</g>
<!-- DateRangesService -->
<g id="node4" class="node">
<title>DateRangesService</title>
<ellipse fill="#fdb462" stroke="black" cx="190" cy="-104" rx="86.79" ry="18"/>
<text text-anchor="middle" x="190" y="-99.8" font-family="Times,serif" font-size="14.00">DateRangesService</text>
</g>
<!-- DateRangesService&#45;&gt;DateRangesModule -->
<g id="edge3" class="edge">
<title>DateRangesService&#45;&gt;DateRangesModule</title>
<path fill="none" stroke="black" d="M236.03,-119.4C236.03,-119.4 236.03,-140.94 236.03,-140.94"/>
<polygon fill="black" stroke="black" points="232.53,-140.94 236.03,-150.94 239.53,-140.94 232.53,-140.94"/>
</g>
</g>
</svg>
