<?xml version="1.0" encoding="UTF-8" standalone="no"?>
<!DOCTYPE svg PUBLIC "-//W3C//DTD SVG 1.1//EN"
 "http://www.w3.org/Graphics/SVG/1.1/DTD/svg11.dtd">
<!-- Generated by graphviz version 2.47.0 (20210316.0004)
 -->
<!-- Title: dependencies Pages: 1 -->
<svg width="550pt" height="284pt"
 viewBox="0.00 0.00 550.00 284.00" xmlns="http://www.w3.org/2000/svg" xmlns:xlink="http://www.w3.org/1999/xlink">
<g id="graph0" class="graph" transform="scale(1 1) rotate(0) translate(4 280)">
<title>dependencies</title>
<polygon fill="white" stroke="transparent" points="-4,4 -4,-280 546,-280 546,4 -4,4"/>
<text text-anchor="start" x="250.01" y="-42.4" font-family="Times-12" font-weight="bold" font-size="14.00">Legend</text>
<polygon fill="#ffffb3" stroke="transparent" points="37,-10 37,-30 57,-30 57,-10 37,-10"/>
<text text-anchor="start" x="60.63" y="-15.4" font-family="Times-12" font-size="14.00"> &#160;Declarations</text>
<polygon fill="#8dd3c7" stroke="transparent" points="150,-10 150,-30 170,-30 170,-10 150,-10"/>
<text text-anchor="start" x="173.73" y="-15.4" font-family="Times-12" font-size="14.00"> &#160;Module</text>
<polygon fill="#80b1d3" stroke="transparent" points="236,-10 236,-30 256,-30 256,-10 236,-10"/>
<text text-anchor="start" x="259.78" y="-15.4" font-family="Times-12" font-size="14.00"> &#160;Bootstrap</text>
<polygon fill="#fdb462" stroke="transparent" points="333,-10 333,-30 353,-30 353,-10 333,-10"/>
<text text-anchor="start" x="356.67" y="-15.4" font-family="Times-12" font-size="14.00"> &#160;Providers</text>
<polygon fill="#fb8072" stroke="transparent" points="429,-10 429,-30 449,-30 449,-10 429,-10"/>
<text text-anchor="start" x="452.73" y="-15.4" font-family="Times-12" font-size="14.00"> &#160;Exports</text>
<g id="clust1" class="cluster">
<title>cluster_ToolsModule</title>
<polygon fill="none" stroke="black" stroke-dasharray="1,5" points="8,-70 8,-268 534,-268 534,-70 8,-70"/>
</g>
<g id="clust3" class="cluster">
<title>cluster_ToolsModule_imports</title>
<polygon fill="none" stroke="black" points="164,-78 164,-130 526,-130 526,-78 164,-78"/>
</g>
<g id="clust4" class="cluster">
<title>cluster_ToolsModule_exports</title>
<polygon fill="none" stroke="black" points="219,-208 219,-260 329,-260 329,-208 219,-208"/>
</g>
<g id="clust6" class="cluster">
<title>cluster_ToolsModule_providers</title>
<polygon fill="none" stroke="black" points="16,-78 16,-130 156,-130 156,-78 16,-78"/>
</g>
<!-- CategoriesModule -->
<g id="node1" class="node">
<title>CategoriesModule</title>
<polygon fill="#8dd3c7" stroke="black" points="517.92,-122 514.92,-126 493.92,-126 490.92,-122 398.08,-122 398.08,-86 517.92,-86 517.92,-122"/>
<text text-anchor="middle" x="458" y="-99.8" font-family="Times,serif" font-size="14.00">CategoriesModule</text>
</g>
<!-- ToolsModule -->
<g id="node4" class="node">
<title>ToolsModule</title>
<polygon fill="#8dd3c7" stroke="black" points="319.94,-187 316.94,-191 295.94,-191 292.94,-187 228.06,-187 228.06,-151 319.94,-151 319.94,-187"/>
<text text-anchor="middle" x="274" y="-164.8" font-family="Times,serif" font-size="14.00">ToolsModule</text>
</g>
<!-- CategoriesModule&#45;&gt;ToolsModule -->
<g id="edge1" class="edge">
<title>CategoriesModule&#45;&gt;ToolsModule</title>
<path fill="none" stroke="black" d="M458,-122.11C458,-141.34 458,-169 458,-169 458,-169 329.96,-169 329.96,-169"/>
<polygon fill="black" stroke="black" points="329.96,-165.5 319.96,-169 329.96,-172.5 329.96,-165.5"/>
</g>
<!-- KiosksModule -->
<g id="node2" class="node">
<title>KiosksModule</title>
<polygon fill="#8dd3c7" stroke="black" points="380.44,-122 377.44,-126 356.44,-126 353.44,-122 281.56,-122 281.56,-86 380.44,-86 380.44,-122"/>
<text text-anchor="middle" x="331" y="-99.8" font-family="Times,serif" font-size="14.00">KiosksModule</text>
</g>
<!-- KiosksModule&#45;&gt;ToolsModule -->
<g id="edge2" class="edge">
<title>KiosksModule&#45;&gt;ToolsModule</title>
<path fill="none" stroke="black" d="M300.75,-122.11C300.75,-122.11 300.75,-140.99 300.75,-140.99"/>
<polygon fill="black" stroke="black" points="297.25,-140.99 300.75,-150.99 304.25,-140.99 297.25,-140.99"/>
</g>
<!-- UsersModule -->
<g id="node3" class="node">
<title>UsersModule</title>
<polygon fill="#8dd3c7" stroke="black" points="263.92,-122 260.92,-126 239.92,-126 236.92,-122 172.08,-122 172.08,-86 263.92,-86 263.92,-122"/>
<text text-anchor="middle" x="218" y="-99.8" font-family="Times,serif" font-size="14.00">UsersModule</text>
</g>
<!-- UsersModule&#45;&gt;ToolsModule -->
<g id="edge3" class="edge">
<title>UsersModule&#45;&gt;ToolsModule</title>
<path fill="none" stroke="black" d="M246,-122.11C246,-122.11 246,-140.99 246,-140.99"/>
<polygon fill="black" stroke="black" points="242.5,-140.99 246,-150.99 249.5,-140.99 242.5,-140.99"/>
</g>
<!-- ToolsService  -->
<g id="node5" class="node">
<title>ToolsService </title>
<polygon fill="#fb8072" stroke="black" points="320.87,-252 227.13,-252 227.13,-216 320.87,-216 320.87,-252"/>
<text text-anchor="middle" x="274" y="-229.8" font-family="Times,serif" font-size="14.00">ToolsService </text>
</g>
<!-- ToolsModule&#45;&gt;ToolsService  -->
<g id="edge4" class="edge">
<title>ToolsModule&#45;&gt;ToolsService </title>
<path fill="none" stroke="black" stroke-dasharray="5,2" d="M274,-187.11C274,-187.11 274,-205.99 274,-205.99"/>
<polygon fill="black" stroke="black" points="270.5,-205.99 274,-215.99 277.5,-205.99 270.5,-205.99"/>
</g>
<!-- ToolsService -->
<g id="node6" class="node">
<title>ToolsService</title>
<ellipse fill="#fdb462" stroke="black" cx="86" cy="-104" rx="61.98" ry="18"/>
<text text-anchor="middle" x="86" y="-99.8" font-family="Times,serif" font-size="14.00">ToolsService</text>
</g>
<!-- ToolsService&#45;&gt;ToolsModule -->
<g id="edge5" class="edge">
<title>ToolsService&#45;&gt;ToolsModule</title>
<path fill="none" stroke="black" d="M86,-122.11C86,-141.34 86,-169 86,-169 86,-169 218.01,-169 218.01,-169"/>
<polygon fill="black" stroke="black" points="218.01,-172.5 228.01,-169 218.01,-165.5 218.01,-172.5"/>
</g>
</g>
</svg>
