<?xml version="1.0" encoding="UTF-8" standalone="no"?>
<!DOCTYPE svg PUBLIC "-//W3C//DTD SVG 1.1//EN"
 "http://www.w3.org/Graphics/SVG/1.1/DTD/svg11.dtd">
<!-- Generated by graphviz version 2.47.0 (20210316.0004)
 -->
<!-- Title: dependencies Pages: 1 -->
<svg width="1323pt" height="211pt"
 viewBox="0.00 0.00 1323.00 211.00" xmlns="http://www.w3.org/2000/svg" xmlns:xlink="http://www.w3.org/1999/xlink">
<g id="graph0" class="graph" transform="scale(1 1) rotate(0) translate(4 207)">
<title>dependencies</title>
<polygon fill="white" stroke="transparent" points="-4,4 -4,-207 1319,-207 1319,4 -4,4"/>
<text text-anchor="start" x="636.51" y="-42.4" font-family="Times-12" font-weight="bold" font-size="14.00">Legend</text>
<polygon fill="#ffffb3" stroke="transparent" points="423.5,-10 423.5,-30 443.5,-30 443.5,-10 423.5,-10"/>
<text text-anchor="start" x="447.13" y="-15.4" font-family="Times-12" font-size="14.00"> &#160;Declarations</text>
<polygon fill="#8dd3c7" stroke="transparent" points="536.5,-10 536.5,-30 556.5,-30 556.5,-10 536.5,-10"/>
<text text-anchor="start" x="560.23" y="-15.4" font-family="Times-12" font-size="14.00"> &#160;Module</text>
<polygon fill="#80b1d3" stroke="transparent" points="622.5,-10 622.5,-30 642.5,-30 642.5,-10 622.5,-10"/>
<text text-anchor="start" x="646.28" y="-15.4" font-family="Times-12" font-size="14.00"> &#160;Bootstrap</text>
<polygon fill="#fdb462" stroke="transparent" points="719.5,-10 719.5,-30 739.5,-30 739.5,-10 719.5,-10"/>
<text text-anchor="start" x="743.17" y="-15.4" font-family="Times-12" font-size="14.00"> &#160;Providers</text>
<polygon fill="#fb8072" stroke="transparent" points="815.5,-10 815.5,-30 835.5,-30 835.5,-10 815.5,-10"/>
<text text-anchor="start" x="839.23" y="-15.4" font-family="Times-12" font-size="14.00"> &#160;Exports</text>
<g id="clust1" class="cluster">
<title>cluster_AppModule</title>
<polygon fill="none" stroke="black" stroke-dasharray="1,5" points="8,-70 8,-195 1307,-195 1307,-70 8,-70"/>
</g>
<g id="clust3" class="cluster">
<title>cluster_AppModule_imports</title>
<polygon fill="none" stroke="black" points="154,-78 154,-130 1299,-130 1299,-78 154,-78"/>
</g>
<g id="clust6" class="cluster">
<title>cluster_AppModule_providers</title>
<polygon fill="none" stroke="black" points="16,-78 16,-130 146,-130 146,-78 16,-78"/>
</g>
<!-- AuthModule -->
<g id="node1" class="node">
<title>AuthModule</title>
<polygon fill="#8dd3c7" stroke="black" points="1290.55,-122 1287.55,-126 1266.55,-126 1263.55,-122 1203.45,-122 1203.45,-86 1290.55,-86 1290.55,-122"/>
<text text-anchor="middle" x="1247" y="-99.8" font-family="Times,serif" font-size="14.00">AuthModule</text>
</g>
<!-- AppModule -->
<g id="node10" class="node">
<title>AppModule</title>
<polygon fill="#8dd3c7" stroke="black" points="693.66,-187 690.66,-191 669.66,-191 666.66,-187 610.34,-187 610.34,-151 693.66,-151 693.66,-187"/>
<text text-anchor="middle" x="652" y="-164.8" font-family="Times,serif" font-size="14.00">AppModule</text>
</g>
<!-- AuthModule&#45;&gt;AppModule -->
<g id="edge1" class="edge">
<title>AuthModule&#45;&gt;AppModule</title>
<path fill="none" stroke="black" d="M1247,-122.01C1247,-144.49 1247,-180 1247,-180 1247,-180 703.84,-180 703.84,-180"/>
<polygon fill="black" stroke="black" points="703.84,-176.5 693.84,-180 703.84,-183.5 703.84,-176.5"/>
</g>
<!-- CategoriesModule -->
<g id="node2" class="node">
<title>CategoriesModule</title>
<polygon fill="#8dd3c7" stroke="black" points="1185.92,-122 1182.92,-126 1161.92,-126 1158.92,-122 1066.08,-122 1066.08,-86 1185.92,-86 1185.92,-122"/>
<text text-anchor="middle" x="1126" y="-99.8" font-family="Times,serif" font-size="14.00">CategoriesModule</text>
</g>
<!-- CategoriesModule&#45;&gt;AppModule -->
<g id="edge2" class="edge">
<title>CategoriesModule&#45;&gt;AppModule</title>
<path fill="none" stroke="black" d="M1126,-122.13C1126,-142.57 1126,-173 1126,-173 1126,-173 704.06,-173 704.06,-173"/>
<polygon fill="black" stroke="black" points="704.06,-169.5 694.06,-173 704.06,-176.5 704.06,-169.5"/>
</g>
<!-- DateRangesModule -->
<g id="node3" class="node">
<title>DateRangesModule</title>
<polygon fill="#8dd3c7" stroke="black" points="1048.69,-122 1045.69,-126 1024.69,-126 1021.69,-122 921.31,-122 921.31,-86 1048.69,-86 1048.69,-122"/>
<text text-anchor="middle" x="985" y="-99.8" font-family="Times,serif" font-size="14.00">DateRangesModule</text>
</g>
<!-- DateRangesModule&#45;&gt;AppModule -->
<g id="edge3" class="edge">
<title>DateRangesModule&#45;&gt;AppModule</title>
<path fill="none" stroke="black" d="M985,-122.27C985,-140.56 985,-166 985,-166 985,-166 703.84,-166 703.84,-166"/>
<polygon fill="black" stroke="black" points="703.84,-162.5 693.84,-166 703.84,-169.5 703.84,-162.5"/>
</g>
<!-- KiosksModule -->
<g id="node4" class="node">
<title>KiosksModule</title>
<polygon fill="#8dd3c7" stroke="black" points="903.44,-122 900.44,-126 879.44,-126 876.44,-122 804.56,-122 804.56,-86 903.44,-86 903.44,-122"/>
<text text-anchor="middle" x="854" y="-99.8" font-family="Times,serif" font-size="14.00">KiosksModule</text>
</g>
<!-- KiosksModule&#45;&gt;AppModule -->
<g id="edge4" class="edge">
<title>KiosksModule&#45;&gt;AppModule</title>
<path fill="none" stroke="black" d="M854,-122.01C854,-138.05 854,-159 854,-159 854,-159 703.85,-159 703.85,-159"/>
<polygon fill="black" stroke="black" points="703.85,-155.5 693.85,-159 703.85,-162.5 703.85,-155.5"/>
</g>
<!-- ReservationsModule -->
<g id="node5" class="node">
<title>ReservationsModule</title>
<polygon fill="#8dd3c7" stroke="black" points="786.86,-122 783.86,-126 762.86,-126 759.86,-122 655.14,-122 655.14,-86 786.86,-86 786.86,-122"/>
<text text-anchor="middle" x="721" y="-99.8" font-family="Times,serif" font-size="14.00">ReservationsModule</text>
</g>
<!-- ReservationsModule&#45;&gt;AppModule -->
<g id="edge5" class="edge">
<title>ReservationsModule&#45;&gt;AppModule</title>
<path fill="none" stroke="black" d="M674.45,-122.11C674.45,-122.11 674.45,-140.99 674.45,-140.99"/>
<polygon fill="black" stroke="black" points="670.95,-140.99 674.45,-150.99 677.95,-140.99 670.95,-140.99"/>
</g>
<!-- ReviewsModule -->
<g id="node6" class="node">
<title>ReviewsModule</title>
<polygon fill="#8dd3c7" stroke="black" points="636.76,-122 633.76,-126 612.76,-126 609.76,-122 529.24,-122 529.24,-86 636.76,-86 636.76,-122"/>
<text text-anchor="middle" x="583" y="-99.8" font-family="Times,serif" font-size="14.00">ReviewsModule</text>
</g>
<!-- ReviewsModule&#45;&gt;AppModule -->
<g id="edge6" class="edge">
<title>ReviewsModule&#45;&gt;AppModule</title>
<path fill="none" stroke="black" d="M623.53,-122.11C623.53,-122.11 623.53,-140.99 623.53,-140.99"/>
<polygon fill="black" stroke="black" points="620.03,-140.99 623.53,-150.99 627.03,-140.99 620.03,-140.99"/>
</g>
<!-- ToolPicturesModule -->
<g id="node7" class="node">
<title>ToolPicturesModule</title>
<polygon fill="#8dd3c7" stroke="black" points="511.59,-122 508.59,-126 487.59,-126 484.59,-122 380.41,-122 380.41,-86 511.59,-86 511.59,-122"/>
<text text-anchor="middle" x="446" y="-99.8" font-family="Times,serif" font-size="14.00">ToolPicturesModule</text>
</g>
<!-- ToolPicturesModule&#45;&gt;AppModule -->
<g id="edge7" class="edge">
<title>ToolPicturesModule&#45;&gt;AppModule</title>
<path fill="none" stroke="black" d="M446,-122.01C446,-138.05 446,-159 446,-159 446,-159 600.31,-159 600.31,-159"/>
<polygon fill="black" stroke="black" points="600.31,-162.5 610.31,-159 600.31,-155.5 600.31,-162.5"/>
</g>
<!-- ToolsModule -->
<g id="node8" class="node">
<title>ToolsModule</title>
<polygon fill="#8dd3c7" stroke="black" points="362.94,-122 359.94,-126 338.94,-126 335.94,-122 271.06,-122 271.06,-86 362.94,-86 362.94,-122"/>
<text text-anchor="middle" x="317" y="-99.8" font-family="Times,serif" font-size="14.00">ToolsModule</text>
</g>
<!-- ToolsModule&#45;&gt;AppModule -->
<g id="edge8" class="edge">
<title>ToolsModule&#45;&gt;AppModule</title>
<path fill="none" stroke="black" d="M317,-122.27C317,-140.56 317,-166 317,-166 317,-166 600.25,-166 600.25,-166"/>
<polygon fill="black" stroke="black" points="600.25,-169.5 610.25,-166 600.25,-162.5 600.25,-169.5"/>
</g>
<!-- UsersModule -->
<g id="node9" class="node">
<title>UsersModule</title>
<polygon fill="#8dd3c7" stroke="black" points="253.92,-122 250.92,-126 229.92,-126 226.92,-122 162.08,-122 162.08,-86 253.92,-86 253.92,-122"/>
<text text-anchor="middle" x="208" y="-99.8" font-family="Times,serif" font-size="14.00">UsersModule</text>
</g>
<!-- UsersModule&#45;&gt;AppModule -->
<g id="edge9" class="edge">
<title>UsersModule&#45;&gt;AppModule</title>
<path fill="none" stroke="black" d="M208,-122.13C208,-142.57 208,-173 208,-173 208,-173 600.23,-173 600.23,-173"/>
<polygon fill="black" stroke="black" points="600.23,-176.5 610.23,-173 600.23,-169.5 600.23,-176.5"/>
</g>
<!-- AppService -->
<g id="node11" class="node">
<title>AppService</title>
<ellipse fill="#fdb462" stroke="black" cx="81" cy="-104" rx="56.74" ry="18"/>
<text text-anchor="middle" x="81" y="-99.8" font-family="Times,serif" font-size="14.00">AppService</text>
</g>
<!-- AppService&#45;&gt;AppModule -->
<g id="edge10" class="edge">
<title>AppService&#45;&gt;AppModule</title>
<path fill="none" stroke="black" d="M81,-122.01C81,-144.49 81,-180 81,-180 81,-180 600.01,-180 600.01,-180"/>
<polygon fill="black" stroke="black" points="600.01,-183.5 610.01,-180 600.01,-176.5 600.01,-183.5"/>
</g>
</g>
</svg>
