<?xml version="1.0" encoding="UTF-8" standalone="no"?>
<!DOCTYPE svg PUBLIC "-//W3C//DTD SVG 1.1//EN"
 "http://www.w3.org/Graphics/SVG/1.1/DTD/svg11.dtd">
<!-- Generated by graphviz version 2.47.0 (20210316.0004)
 -->
<!-- Title: dependencies Pages: 1 -->
<svg width="504pt" height="284pt"
 viewBox="0.00 0.00 504.00 284.00" xmlns="http://www.w3.org/2000/svg" xmlns:xlink="http://www.w3.org/1999/xlink">
<g id="graph0" class="graph" transform="scale(1 1) rotate(0) translate(4 280)">
<title>dependencies</title>
<polygon fill="white" stroke="transparent" points="-4,4 -4,-280 500,-280 500,4 -4,4"/>
<text text-anchor="start" x="227.01" y="-42.4" font-family="Times-12" font-weight="bold" font-size="14.00">Legend</text>
<polygon fill="#ffffb3" stroke="transparent" points="14,-10 14,-30 34,-30 34,-10 14,-10"/>
<text text-anchor="start" x="37.63" y="-15.4" font-family="Times-12" font-size="14.00"> &#160;Declarations</text>
<polygon fill="#8dd3c7" stroke="transparent" points="127,-10 127,-30 147,-30 147,-10 127,-10"/>
<text text-anchor="start" x="150.73" y="-15.4" font-family="Times-12" font-size="14.00"> &#160;Module</text>
<polygon fill="#80b1d3" stroke="transparent" points="213,-10 213,-30 233,-30 233,-10 213,-10"/>
<text text-anchor="start" x="236.78" y="-15.4" font-family="Times-12" font-size="14.00"> &#160;Bootstrap</text>
<polygon fill="#fdb462" stroke="transparent" points="310,-10 310,-30 330,-30 330,-10 310,-10"/>
<text text-anchor="start" x="333.67" y="-15.4" font-family="Times-12" font-size="14.00"> &#160;Providers</text>
<polygon fill="#fb8072" stroke="transparent" points="406,-10 406,-30 426,-30 426,-10 406,-10"/>
<text text-anchor="start" x="429.73" y="-15.4" font-family="Times-12" font-size="14.00"> &#160;Exports</text>
<g id="clust1" class="cluster">
<title>cluster_ReviewsModule</title>
<polygon fill="none" stroke="black" stroke-dasharray="1,5" points="46.5,-70 46.5,-268 449.5,-268 449.5,-70 46.5,-70"/>
</g>
<g id="clust3" class="cluster">
<title>cluster_ReviewsModule_imports</title>
<polygon fill="none" stroke="black" points="224.5,-78 224.5,-130 441.5,-130 441.5,-78 224.5,-78"/>
</g>
<g id="clust4" class="cluster">
<title>cluster_ReviewsModule_exports</title>
<polygon fill="none" stroke="black" points="215.5,-208 215.5,-260 341.5,-260 341.5,-208 215.5,-208"/>
</g>
<g id="clust6" class="cluster">
<title>cluster_ReviewsModule_providers</title>
<polygon fill="none" stroke="black" points="54.5,-78 54.5,-130 216.5,-130 216.5,-78 54.5,-78"/>
</g>
<!-- ToolsModule -->
<g id="node1" class="node">
<title>ToolsModule</title>
<polygon fill="#8dd3c7" stroke="black" points="433.44,-122 430.44,-126 409.44,-126 406.44,-122 341.56,-122 341.56,-86 433.44,-86 433.44,-122"/>
<text text-anchor="middle" x="387.5" y="-99.8" font-family="Times,serif" font-size="14.00">ToolsModule</text>
</g>
<!-- ReviewsModule -->
<g id="node3" class="node">
<title>ReviewsModule</title>
<polygon fill="#8dd3c7" stroke="black" points="332.26,-187 329.26,-191 308.26,-191 305.26,-187 224.74,-187 224.74,-151 332.26,-151 332.26,-187"/>
<text text-anchor="middle" x="278.5" y="-164.8" font-family="Times,serif" font-size="14.00">ReviewsModule</text>
</g>
<!-- ToolsModule&#45;&gt;ReviewsModule -->
<g id="edge1" class="edge">
<title>ToolsModule&#45;&gt;ReviewsModule</title>
<path fill="none" stroke="black" d="M341.73,-104C333.93,-104 328.29,-104 328.29,-104 328.29,-104 328.29,-140.89 328.29,-140.89"/>
<polygon fill="black" stroke="black" points="324.79,-140.89 328.29,-150.89 331.79,-140.89 324.79,-140.89"/>
</g>
<!-- UsersModule -->
<g id="node2" class="node">
<title>UsersModule</title>
<polygon fill="#8dd3c7" stroke="black" points="324.42,-122 321.42,-126 300.42,-126 297.42,-122 232.58,-122 232.58,-86 324.42,-86 324.42,-122"/>
<text text-anchor="middle" x="278.5" y="-99.8" font-family="Times,serif" font-size="14.00">UsersModule</text>
</g>
<!-- UsersModule&#45;&gt;ReviewsModule -->
<g id="edge2" class="edge">
<title>UsersModule&#45;&gt;ReviewsModule</title>
<path fill="none" stroke="black" d="M278.5,-122.11C278.5,-122.11 278.5,-140.99 278.5,-140.99"/>
<polygon fill="black" stroke="black" points="275,-140.99 278.5,-150.99 282,-140.99 275,-140.99"/>
</g>
<!-- ReviewsService  -->
<g id="node4" class="node">
<title>ReviewsService </title>
<polygon fill="#fb8072" stroke="black" points="333.19,-252 223.81,-252 223.81,-216 333.19,-216 333.19,-252"/>
<text text-anchor="middle" x="278.5" y="-229.8" font-family="Times,serif" font-size="14.00">ReviewsService </text>
</g>
<!-- ReviewsModule&#45;&gt;ReviewsService  -->
<g id="edge3" class="edge">
<title>ReviewsModule&#45;&gt;ReviewsService </title>
<path fill="none" stroke="black" stroke-dasharray="5,2" d="M278.5,-187.11C278.5,-187.11 278.5,-205.99 278.5,-205.99"/>
<polygon fill="black" stroke="black" points="275,-205.99 278.5,-215.99 282,-205.99 275,-205.99"/>
</g>
<!-- ReviewsService -->
<g id="node5" class="node">
<title>ReviewsService</title>
<ellipse fill="#fdb462" stroke="black" cx="135.5" cy="-104" rx="73.49" ry="18"/>
<text text-anchor="middle" x="135.5" y="-99.8" font-family="Times,serif" font-size="14.00">ReviewsService</text>
</g>
<!-- ReviewsService&#45;&gt;ReviewsModule -->
<g id="edge4" class="edge">
<title>ReviewsService&#45;&gt;ReviewsModule</title>
<path fill="none" stroke="black" d="M208.94,-104C220.49,-104 228.71,-104 228.71,-104 228.71,-104 228.71,-140.89 228.71,-140.89"/>
<polygon fill="black" stroke="black" points="225.21,-140.89 228.71,-150.89 232.21,-140.89 225.21,-140.89"/>
</g>
</g>
</svg>
